<svg xmlns="http://www.w3.org/2000/svg" viewBox="0 0 32 32" fill="none">
  <rect width="32" height="32" rx="8" fill="#000000"/>
  <rect x="0.5" y="0.5" width="31" height="31" rx="7.5" stroke="#222222"/>
  <path d="M25 9.5a8.2 8.2 0 0 1-2.3.6 4.1 4.1 0 0 0 1.8-2.2 8.1 8.1 0 0 1-2.6 1 4.1 4.1 0 0 0-6.9 3.7A11.6 11.6 0 0 1 6.5 8.3a4.1 4.1 0 0 0 1.3 5.5 4 4 0 0 1-1.9-.5v.1a4.1 4.1 0 0 0 3.3 4 4.1 4.1 0 0 1-1.8.1 4.1 4.1 0 0 0 3.8 2.8A8.2 8.2 0 0 1 6 22a11.6 11.6 0 0 0 6.3 1.8c7.5 0 11.6-6.2 11.6-11.6v-.5A8.3 8.3 0 0 0 25 9.5z" fill="#FFFFFF"/>
</svg>
